<svg xmlns="http://www.w3.org/2000/svg" id="trend-chart" width="660" height="400" title="Stack Overflow Trends Chart" version="1.1"><link xmlns="" type="text/css" rel="stylesheet" id="dark-mode-custom-link"/><link xmlns="" type="text/css" rel="stylesheet" id="dark-mode-general-link"/><style xmlns="" lang="en" type="text/css" id="dark-mode-custom-style"/><style xmlns="" lang="en" type="text/css" id="dark-mode-native-style"/><style xmlns="" lang="en" type="text/css" id="dark-mode-native-sheet"/><g/><g class="chart-area" transform="translate(100, 20)"><g transform="translate(0,300)" fill="none" font-size="10" font-family="sans-serif" text-anchor="middle"><path class="domain" stroke="#000" d="M0.5,6V0.5H410.5V6"/><g class="tick" opacity="1" transform="translate(12.49692956250415,0)"><line stroke="#000" y2="6" x1="0.5" x2="0.5"/><text fill="#000" y="9" x="0.5" dy="0.71em" style="font-size: 12px;">2009</text></g><g class="tick" opacity="1" transform="translate(42.30174931952466,0)"><line stroke="#000" y2="6" x1="0.5" x2="0.5"/><text fill="#000" y="9" x="0.5" dy="0.71em" style="font-size: 12px;">2010</text></g><g class="tick" opacity="1" transform="translate(72.10656907654517,0)"><line stroke="#000" y2="6" x1="0.5" x2="0.5"/><text fill="#000" y="9" x="0.5" dy="0.71em" style="font-size: 12px;">2011</text></g><g class="tick" opacity="1" transform="translate(101.9113888335657,0)"><line stroke="#000" y2="6" x1="0.5" x2="0.5"/><text fill="#000" y="9" x="0.5" dy="0.71em" style="font-size: 12px;">2012</text></g><g class="tick" opacity="1" transform="translate(131.7978656310164,0)"><line stroke="#000" y2="6" x1="0.5" x2="0.5"/><text fill="#000" y="9" x="0.5" dy="0.71em" style="font-size: 12px;">2013</text></g><g class="tick" opacity="1" transform="translate(161.60268538803692,0)"><line stroke="#000" y2="6" x1="0.5" x2="0.5"/><text fill="#000" y="9" x="0.5" dy="0.71em" style="font-size: 12px;">2014</text></g><g class="tick" opacity="1" transform="translate(191.40750514505743,0)"><line stroke="#000" y2="6" x1="0.5" x2="0.5"/><text fill="#000" y="9" x="0.5" dy="0.71em" style="font-size: 12px;">2015</text></g><g class="tick" opacity="1" transform="translate(221.21232490207797,0)"><line stroke="#000" y2="6" x1="0.5" x2="0.5"/><text fill="#000" y="9" x="0.5" dy="0.71em" style="font-size: 12px;">2016</text></g><g class="tick" opacity="1" transform="translate(251.09880169952865,0)"><line stroke="#000" y2="6" x1="0.5" x2="0.5"/><text fill="#000" y="9" x="0.5" dy="0.71em" style="font-size: 12px;">2017</text></g><g class="tick" opacity="1" transform="translate(280.90362145654916,0)"><line stroke="#000" y2="6" x1="0.5" x2="0.5"/><text fill="#000" y="9" x="0.5" dy="0.71em" style="font-size: 12px;">2018</text></g><g class="tick" opacity="1" transform="translate(310.70844121356964,0)"><line stroke="#000" y2="6" x1="0.5" x2="0.5"/><text fill="#000" y="9" x="0.5" dy="0.71em" style="font-size: 12px;">2019</text></g><g class="tick" opacity="1" transform="translate(340.5132609705902,0)"><line stroke="#000" y2="6" x1="0.5" x2="0.5"/><text fill="#000" y="9" x="0.5" dy="0.71em" style="font-size: 12px;">2020</text></g><g class="tick" opacity="1" transform="translate(370.3997377680409,0)"><line stroke="#000" y2="6" x1="0.5" x2="0.5"/><text fill="#000" y="9" x="0.5" dy="0.71em" style="font-size: 12px;">2021</text></g><g class="tick" opacity="1" transform="translate(400.20455752506143,0)"><line stroke="#000" y2="6" x1="0.5" x2="0.5"/><text fill="#000" y="9" x="0.5" dy="0.71em" style="font-size: 12px;">2022</text></g></g><g class="grid-lines" transform="translate(0,300)" fill="none" font-size="10" font-family="sans-serif" text-anchor="middle"><path class="domain" stroke="#000" d="M0.5,-300V0.5H410.5V-300"/><g class="tick" opacity="1" transform="translate(12.49692956250415,0)"><line stroke="#000" y2="-300" x1="0.5" x2="0.5" style="stroke: #ccc; fill: none;"/></g><g class="tick" opacity="1" transform="translate(42.30174931952466,0)"><line stroke="#000" y2="-300" x1="0.5" x2="0.5" style="stroke: #ccc; fill: none;"/></g><g class="tick" opacity="1" transform="translate(72.10656907654517,0)"><line stroke="#000" y2="-300" x1="0.5" x2="0.5" style="stroke: #ccc; fill: none;"/></g><g class="tick" opacity="1" transform="translate(101.9113888335657,0)"><line stroke="#000" y2="-300" x1="0.5" x2="0.5" style="stroke: #ccc; fill: none;"/></g><g class="tick" opacity="1" transform="translate(131.7978656310164,0)"><line stroke="#000" y2="-300" x1="0.5" x2="0.5" style="stroke: #ccc; fill: none;"/></g><g class="tick" opacity="1" transform="translate(161.60268538803692,0)"><line stroke="#000" y2="-300" x1="0.5" x2="0.5" style="stroke: #ccc; fill: none;"/></g><g class="tick" opacity="1" transform="translate(191.40750514505743,0)"><line stroke="#000" y2="-300" x1="0.5" x2="0.5" style="stroke: #ccc; fill: none;"/></g><g class="tick" opacity="1" transform="translate(221.21232490207797,0)"><line stroke="#000" y2="-300" x1="0.5" x2="0.5" style="stroke: #ccc; fill: none;"/></g><g class="tick" opacity="1" transform="translate(251.09880169952865,0)"><line stroke="#000" y2="-300" x1="0.5" x2="0.5" style="stroke: #ccc; fill: none;"/></g><g class="tick" opacity="1" transform="translate(280.90362145654916,0)"><line stroke="#000" y2="-300" x1="0.5" x2="0.5" style="stroke: #ccc; fill: none;"/></g><g class="tick" opacity="1" transform="translate(310.70844121356964,0)"><line stroke="#000" y2="-300" x1="0.5" x2="0.5" style="stroke: #ccc; fill: none;"/></g><g class="tick" opacity="1" transform="translate(340.5132609705902,0)"><line stroke="#000" y2="-300" x1="0.5" x2="0.5" style="stroke: #ccc; fill: none;"/></g><g class="tick" opacity="1" transform="translate(370.3997377680409,0)"><line stroke="#000" y2="-300" x1="0.5" x2="0.5" style="stroke: #ccc; fill: none;"/></g><g class="tick" opacity="1" transform="translate(400.20455752506143,0)"><line stroke="#000" y2="-300" x1="0.5" x2="0.5" style="stroke: #ccc; fill: none;"/></g></g><text x="205" y="360" class="axis-label x-axis-label" style="text-anchor: middle; font-weight: bold;">Year</text><g fill="none" font-size="10" font-family="sans-serif" text-anchor="end"><path class="domain" stroke="#000" d="M-6,300.5H0.5V0.5H-6"/><g class="tick" opacity="1" transform="translate(0,300)"><line stroke="#000" x2="-6" y1="0.5" y2="0.5"/><text fill="#000" x="-9" y="0.5" dy="0.32em" style="font-size: 12px;">0.00%</text></g><g class="tick" opacity="1" transform="translate(0,270)"><line stroke="#000" x2="-6" y1="0.5" y2="0.5"/><text fill="#000" x="-9" y="0.5" dy="0.32em" style="font-size: 12px;">0.05%</text></g><g class="tick" opacity="1" transform="translate(0,240)"><line stroke="#000" x2="-6" y1="0.5" y2="0.5"/><text fill="#000" x="-9" y="0.5" dy="0.32em" style="font-size: 12px;">0.10%</text></g><g class="tick" opacity="1" transform="translate(0,210)"><line stroke="#000" x2="-6" y1="0.5" y2="0.5"/><text fill="#000" x="-9" y="0.5" dy="0.32em" style="font-size: 12px;">0.15%</text></g><g class="tick" opacity="1" transform="translate(0,180)"><line stroke="#000" x2="-6" y1="0.5" y2="0.5"/><text fill="#000" x="-9" y="0.5" dy="0.32em" style="font-size: 12px;">0.20%</text></g><g class="tick" opacity="1" transform="translate(0,150)"><line stroke="#000" x2="-6" y1="0.5" y2="0.5"/><text fill="#000" x="-9" y="0.5" dy="0.32em" style="font-size: 12px;">0.25%</text></g><g class="tick" opacity="1" transform="translate(0,120)"><line stroke="#000" x2="-6" y1="0.5" y2="0.5"/><text fill="#000" x="-9" y="0.5" dy="0.32em" style="font-size: 12px;">0.30%</text></g><g class="tick" opacity="1" transform="translate(0,90)"><line stroke="#000" x2="-6" y1="0.5" y2="0.5"/><text fill="#000" x="-9" y="0.5" dy="0.32em" style="font-size: 12px;">0.35%</text></g><g class="tick" opacity="1" transform="translate(0,60)"><line stroke="#000" x2="-6" y1="0.5" y2="0.5"/><text fill="#000" x="-9" y="0.5" dy="0.32em" style="font-size: 12px;">0.40%</text></g><g class="tick" opacity="1" transform="translate(0,30)"><line stroke="#000" x2="-6" y1="0.5" y2="0.5"/><text fill="#000" x="-9" y="0.5" dy="0.32em" style="font-size: 12px;">0.45%</text></g><g class="tick" opacity="1" transform="translate(0,0)"><line stroke="#000" x2="-6" y1="0.5" y2="0.5"/><text fill="#000" x="-9" y="0.5" dy="0.32em" style="font-size: 12px;">0.50%</text></g></g><g class="grid-lines" fill="none" font-size="10" font-family="sans-serif" text-anchor="end"><path class="domain" stroke="#000" d="M410,300.5H0.5V0.5H410"/><g class="tick" opacity="1" transform="translate(0,300)"><line stroke="#000" x2="410" y1="0.5" y2="0.5" style="stroke: #ccc; fill: none;"/></g><g class="tick" opacity="1" transform="translate(0,270)"><line stroke="#000" x2="410" y1="0.5" y2="0.5" style="stroke: #ccc; fill: none;"/></g><g class="tick" opacity="1" transform="translate(0,240)"><line stroke="#000" x2="410" y1="0.5" y2="0.5" style="stroke: #ccc; fill: none;"/></g><g class="tick" opacity="1" transform="translate(0,210)"><line stroke="#000" x2="410" y1="0.5" y2="0.5" style="stroke: #ccc; fill: none;"/></g><g class="tick" opacity="1" transform="translate(0,180)"><line stroke="#000" x2="410" y1="0.5" y2="0.5" style="stroke: #ccc; fill: none;"/></g><g class="tick" opacity="1" transform="translate(0,150)"><line stroke="#000" x2="410" y1="0.5" y2="0.5" style="stroke: #ccc; fill: none;"/></g><g class="tick" opacity="1" transform="translate(0,120)"><line stroke="#000" x2="410" y1="0.5" y2="0.5" style="stroke: #ccc; fill: none;"/></g><g class="tick" opacity="1" transform="translate(0,90)"><line stroke="#000" x2="410" y1="0.5" y2="0.5" style="stroke: #ccc; fill: none;"/></g><g class="tick" opacity="1" transform="translate(0,60)"><line stroke="#000" x2="410" y1="0.5" y2="0.5" style="stroke: #ccc; fill: none;"/></g><g class="tick" opacity="1" transform="translate(0,30)"><line stroke="#000" x2="410" y1="0.5" y2="0.5" style="stroke: #ccc; fill: none;"/></g><g class="tick" opacity="1" transform="translate(0,0)"><line stroke="#000" x2="410" y1="0.5" y2="0.5" style="stroke: #ccc; fill: none;"/></g></g><g class="lines"><path class="line" d="M2.5313682533359887,295.6612914894L4.981079466241785,295.8321756048L7.515850096262365,285.6413529042L9.96556130916816,289.9371069186L12.49692956250415,288.5262621114L15.028297815840137,300L17.31469494788555,288.1405346646L19.842660824536946,277.2360808122L22.29237203744274,288.2426712654L24.82374029077873,289.280354463L27.273451503684527,286.901197605L29.804819757020514,279.6233405376L32.3361880103565,268.7920695144L34.7858992232623,279.9927751692L37.32066985328288,281.104346001L39.770381066188676,266.3200662912L42.30174931952466,273.0790802022L44.83311757286065,258.152406237L47.11951470490606,262.957961145L49.64748058155746,278.2599943638L52.09719179446325,259.284966459L54.62856004779924,253.3732130922L57.07827126070504,266.2290794118L59.60963951404103,254.4642433638L62.14100776737702,264.4678401054L64.59071898028282,257.41795069980003L67.12548961030339,255.785458329L69.57520082320919,240.9910040208L72.10656907654517,246.4339603662L74.63793732988117,242.5273419504L76.92433446192658,250.3989004098L79.45230033857797,250.2043303326L81.90201155148377,251.9678184384L84.43337980481975,242.2556756598L86.88309101772555,248.550233319L89.41445927106155,233.7494268582L91.94582752439753,224.51643340200002L94.39553873730333,232.3676274288L96.9303093673239,233.2075992456L99.3800205802297,227.5306303872L101.9113888335657,203.73252132840003L104.44275708690166,211.60542995219998L106.81081125937729,210.47730442259999L109.3387771360287,214.59838685879998L111.78848834893448,212.7315039276L114.31985660227048,206.1004050576L116.76956781517626,210.8324428374L119.30093606851226,210.9001641318L121.83230432184823,213.3751766694L124.28201553475404,217.5011569962L126.81678616477463,213.6192319446L129.26649737768042,204.6296227524L131.7978656310164,192.0195283836L134.3292338843524,175.8376034688L136.6156310163978,204.8231064492L139.1435968930492,202.55457119940002L141.59330810595497,202.93723516019998L144.124676359291,210.0912421506L146.57438757219677,204.1773231036L149.10575582553275,200.5679305038L151.63712407886877,189.8869190748L154.08683529177455,204.96614487L156.62160592179512,197.66214864059998L159.0713171347009,208.3641917322L161.60268538803692,194.542886424L164.1340536413729,198.48203420279998L166.4204507734183,192.7935019344L168.9484166500697,207.245181903L171.3981278629755,198.6042436002L173.9294961163115,199.3207854462L176.37920732921728,168.86434027380002L178.9105755825533,188.001964878L181.44194383588925,187.20850107L183.89165504879506,190.2337034802L186.42642567881566,196.9569147336L188.87613689172144,211.92788691599998L191.40750514505743,183.701209023L193.9388733983934,180.60736075379998L196.22527053043882,186.8152481484L198.7532364070902,195.9747200544L201.20294761999602,180.66916311299997L203.734315873332,175.6133621892L206.18402708623782,174.2293845894L208.7153953395738,154.8448848918L211.24676359290976,178.35404183999998L213.69647480581557,171.339217233L216.23124543583614,168.1825113096L218.68095664874195,170.42625094139999L221.21232490207797,150.1693520136L223.74369315541395,159.77484825000002L226.11174732788953,175.8571057314L228.63971320454095,174.915483435L231.0894244174467,169.0883547174L233.62079267078272,168.3649016844L236.07050388368853,162.12480613140002L238.60187213702451,145.4518202712L241.1332403903605,141.8684001534L243.58295160326628,155.9801066052L246.11772223328686,157.982849673L248.56743344619267,162.2988748812L251.09880169952865,166.0354840368L253.63016995286466,165.50961139560002L255.91656708491007,139.54487635380002L258.44453296156144,151.1982103116L260.89424417446725,146.13553490100003L263.42561242780323,149.8471294308L265.875323640709,147.714880929L268.40669189404497,148.4020759356L270.938060147381,150.5697030078L273.3877713602868,155.4465668562L275.92254199030737,155.56677199560002L278.3722532032132,162.50286452400002L280.90362145654916,143.5965243678L283.43498970988514,139.6949586378L285.72138684193055,132.48250645439998L288.249352718582,166.4685660294L290.6990639314878,174.8673931914L293.23043218482377,144.39467169659997L295.6801433977295,168.10680688020003L298.2115116510655,169.5468672066L300.7428799044015,153.88448312219998L303.1925911173073,164.4016438464L305.7273617473279,172.47695244300002L308.17707296023366,146.38498804199997L310.70844121356964,151.4105817378L313.2398094669057,164.64323527620002L315.5262065989511,147.0794054352L318.05417247560246,162.4771290618L320.50388368850827,154.10163315120002L323.03525194184425,152.747006826L325.48496315475006,160.36498259639998L328.01633140808605,158.9372980728L330.54769966142203,144.8739508254L332.9974108743278,136.8397315152L335.5321815043484,135.50545246259998L337.9818927172542,115.57752150839997L340.5132609705902,114.46280991780003L343.04462922392617,125.81332368L345.4126833964018,108.67619189339999L347.94064927305317,114.25891182000001L350.390360485959,105.5668262604L352.92172873929496,87.11530666800004L355.3714399522008,105.22914754320001L357.90280820553676,112.28959091399997L360.43417645887274,109.67587873439999L362.8838876717785,84.39688051499999L365.4186583017991,109.1298081594L367.8683695147049,85.5901536984L370.3997377680409,90.32316172500006L372.9311060213769,89.5268950626L375.2175031534223,79.17596914980001L377.7454690300737,78.87250086840001L380.19518024297946,99.4426458552L382.72654849631544,54.13386503520002L385.17625970922126,61.516592786400025L387.7076279625573,29.88509727600001L390.2389962158933,52.07667731640001L392.68870742879903,36.15225591960001L395.22347805881964,45.092789606999986L397.67318927172545,58.923734425200024L400.20455752506143,33.8999486628L402.7359257783974,45.13289811179999L405.0223229104428,19.82973961380003L407.5502887870942,49.48347107460003L410,27.02204059020005" data-legend="github" style="stroke: rgb(31, 119, 180); fill: none;"/><path class="line" d="M2.5313682533359887,300L4.981079466241785,300L7.515850096262365,300L9.96556130916816,300L12.49692956250415,300L15.028297815840137,300L17.31469494788555,297.0351336666L19.842660824536946,300L22.29237203744274,300L24.82374029077873,300L27.273451503684527,300L29.804819757020514,300L32.3361880103565,300L34.7858992232623,298.3327312644L37.32066985328288,300L39.770381066188676,298.3961936334L42.30174931952466,300L44.83311757286065,300L47.11951470490606,300L49.64748058155746,298.7922219096L52.09719179446325,300L54.62856004779924,300L57.07827126070504,300L59.60963951404103,300L62.14100776737702,300L64.59071898028282,300L67.12548961030339,300L69.57520082320919,300L72.10656907654517,300L74.63793732988117,299.2724979996L76.92433446192658,300L79.45230033857797,300L81.90201155148377,300L84.43337980481975,299.3921650074L86.88309101772555,300L89.41445927106155,300L91.94582752439753,300L94.39553873730333,300L96.9303093673239,300L99.3800205802297,300L101.9113888335657,300L104.44275708690166,299.5143155496L106.81081125937729,299.5501372086L109.3387771360287,300L111.78848834893448,298.657407753L114.31985660227048,298.619123604L116.76956781517626,299.15078517L119.30093606851226,298.2947399838L121.83230432184823,296.352639018L124.28201553475404,298.7926998588L126.81678616477463,295.5179790162L129.26649737768042,295.0977843474L131.7978656310164,296.1709052622L134.3292338843524,291.3283405602L136.6156310163978,296.1790298214L139.1435968930492,290.853497658L141.59330810595497,293.1186845826L144.124676359291,292.7615830548L146.57438757219677,295.225916454L149.10575582553275,292.9229843778L151.63712407886877,293.0952193482L154.08683529177455,292.162156278L156.62160592179512,288.0605840082L159.0713171347009,288.363706887L161.60268538803692,286.6187348334L164.1340536413729,289.752129636L166.4204507734183,289.2793501938L168.9484166500697,288.2510563746L171.3981278629755,284.9784064596L173.9294961163115,286.6748098386L176.37920732921728,285.0518937102L178.9105755825533,284.526587253L181.44194383588925,282.59166576L183.89165504879506,286.409887098L186.42642567881566,289.514914131L188.87613689172144,285.2566506732L191.40750514505743,286.5529522938L193.9388733983934,285.6585418326L196.22527053043882,287.9184815442L198.7532364070902,287.2751951142L201.20294761999602,281.141175642L203.734315873332,281.3580749538L206.18402708623782,279.6047650686L208.7153953395738,277.0282042608L211.24676359290976,274.8553047384L213.69647480581557,273.1011461724L216.23124543583614,265.0971688044L218.68095664874195,262.178473248L221.21232490207797,263.9605568322L223.74369315541395,263.740406985L226.11174732788953,272.1128280996L228.63971320454095,264.6567090792L231.0894244174467,263.9194733736L233.62079267078272,257.3252798478L236.07050388368853,257.9189854944L238.60187213702451,261.3629550678L241.1332403903605,259.4081830752L243.58295160326628,266.8443410892L246.11772223328686,264.7548678024L248.56743344619267,274.2510091242L251.09880169952865,266.4232159482L253.63016995286466,267.5010372012L255.91656708491007,273.5579571522L258.44453296156144,273.5614132218L260.89424417446725,272.7328796028L263.42561242780323,263.9904880536L265.875323640709,263.9502041142L268.40669189404497,244.00437039119998L270.938060147381,230.51491189860002L273.3877713602868,242.321043918L275.92254199030737,221.86986673680002L278.3722532032132,237.08464407L280.90362145654916,225.953910087L283.43498970988514,214.1081630232L285.72138684193055,219.3953482944L288.249352718582,211.6006987404L290.6990639314878,209.58626675699998L293.23043218482377,198.6207709542L295.6801433977295,213.3381901116L298.2115116510655,201.7764647202L300.7428799044015,181.6759070814L303.1925911173073,154.55371853879998L305.7273617473279,167.1973358244L308.17707296023366,164.7819954624L310.70844121356964,160.36665626340002L313.2398094669057,156.339139281L315.5262065989511,179.92901463780004L318.05417247560246,156.53233636980002L320.50388368850827,142.4458407582L323.03525194184425,126.3399351018L325.48496315475006,118.5147180138L328.01633140808605,130.99091372880002L330.54769966142203,96.86932815779997L332.9974108743278,106.99334093879997L335.5321815043484,117.91026454200002L337.9818927172542,116.95039355700001L340.5132609705902,99.17355371940002L343.04462922392617,100.75049255460002L345.4126833964018,100.13841546660001L347.94064927305317,112.9345546854L350.390360485959,115.6293110448L352.92172873929496,111.78737377619998L355.3714399522008,117.2655485382L357.90280820553676,108.6169959534L360.43417645887274,86.15267273519999L362.8838876717785,105.7437240282L365.4186583017991,84.48694301579997L367.8683695147049,119.44433995680001L370.3997377680409,120.15347479920001L372.9311060213769,81.2550263094L375.2175031534223,73.4929977678L377.7454690300737,120.5277812658L380.19518024297946,116.1182011434L382.72654849631544,92.0863556676L385.17625970922126,114.06378420660002L387.7076279625573,121.3086028134L390.2389962158933,118.10436634740003L392.68870742879903,100.51576053420001L395.22347805881964,110.19347020499998L397.67318927172545,130.2534159996L400.20455752506143,131.44144658039997L402.7359257783974,119.88808580099999L405.0223229104428,92.9697647934L407.5502887870942,118.78443526200002L410,114.70827464460001" data-legend="azure-devops" style="stroke: rgb(255, 127, 14); fill: none;"/></g></g><g transform="translate(20, 150)"><text transform="rotate(-90)" x="-50" y="0" dy="1em" class="axis-label y-axis-label" style="text-anchor: middle; font-weight: bold;">% of Stack Overflow questions that month</text></g><g class="legend" transform="translate(530, 30)" style="font-size: 12px;"><text class="legend-title" style="font-weight: bold;">Tag</text><g class="legend-items" transform="translate(0,20)"><text y="0em" x="1em">github</text><text y="1em" x="1em">azure-devops</text><circle cy="-0.25em" cx="0" r="0.4em" style="fill: rgb(31, 119, 180);"/><circle cy="0.75em" cx="0" r="0.4em" style="fill: rgb(255, 127, 14);"/></g><rect class="legend-box"/></g></svg>